<?xml version="1.0" standalone="no"?>
<!DOCTYPE svg PUBLIC "-//W3C//DTD SVG 20010904//EN"
 "http://www.w3.org/TR/2001/REC-SVG-20010904/DTD/svg10.dtd">
<svg version="1.0" xmlns="http://www.w3.org/2000/svg"
 width="300.000000pt" height="200.000000pt" viewBox="0 0 300.000000 200.000000"
 preserveAspectRatio="xMidYMid meet">
<metadata>
Created by potrace 1.16, written by Peter Selinger 2001-2019
</metadata>
<g transform="translate(0.000000,200.000000) scale(0.100000,-0.100000)"
fill="#000000" stroke="none">
<path d="M1400 1673 c-105 -64 -693 -400 -724 -415 -49 -22 -22 -33 90 -38
l109 -5 5 -185 5 -185 615 0 615 0 5 185 5 185 113 3 c82 2 112 6 109 15 -2 6
-66 47 -143 90 -76 44 -262 151 -412 238 -150 88 -283 159 -295 158 -12 0 -56
-21 -97 -46z m60 -458 l0 -55 -75 0 -75 0 0 55 0 55 75 0 75 0 0 -55z m230 0
l0 -55 -75 0 -75 0 0 55 0 55 75 0 75 0 0 -55z m-230 -150 l0 -55 -75 0 -75 0
0 55 0 55 75 0 75 0 0 -55z m230 0 l0 -55 -75 0 -75 0 0 55 0 55 75 0 75 0 0
-55z"/>
<path d="M1757 730 c-112 -29 -177 -95 -177 -180 0 -109 101 -180 255 -180
110 0 206 44 240 110 23 44 19 121 -7 161 -48 71 -204 116 -311 89z m154 -56
c72 -37 78 -177 10 -238 -30 -27 -109 -33 -154 -11 -84 39 -92 198 -13 246 38
23 115 25 157 3z"/>
<path d="M360 717 c0 -7 10 -17 23 -22 21 -10 22 -16 25 -143 2 -112 0 -133
-13 -137 -8 -3 -22 -7 -30 -10 -8 -2 -12 -11 -9 -20 5 -12 26 -15 110 -15 96
0 104 1 104 19 0 13 -8 21 -22 23 -22 3 -23 6 -26 140 l-3 137 26 7 c14 3 25
12 25 20 0 11 -22 14 -105 14 -78 0 -105 -3 -105 -13z"/>
<path d="M650 716 c0 -8 11 -17 25 -20 l26 -7 -3 -137 c-3 -134 -4 -137 -25
-140 -15 -2 -23 -10 -23 -23 0 -19 7 -19 198 -17 l197 3 3 58 c3 54 2 57 -20
57 -15 0 -31 -12 -45 -34 -22 -34 -55 -46 -131 -46 l-33 0 3 143 c3 139 4 142
26 145 12 2 22 10 22 18 0 11 -21 14 -110 14 -87 0 -110 -3 -110 -14z"/>
<path d="M1100 716 c0 -8 10 -16 23 -18 21 -3 22 -6 25 -141 l3 -137 -26 -10
c-14 -5 -25 -16 -25 -25 0 -12 18 -15 110 -15 102 0 110 1 110 19 0 13 -8 21
-22 23 -20 3 -23 10 -26 51 l-3 47 62 0 c81 0 135 17 165 53 31 36 31 78 0
114 -36 43 -85 53 -250 53 -120 0 -146 -3 -146 -14z m275 -51 c30 -30 31 -54
4 -89 -17 -21 -29 -26 -65 -26 l-44 0 0 70 0 70 40 0 c30 0 47 -7 65 -25z"/>
<path d="M2260 715 c0 -8 7 -15 15 -15 8 0 15 -5 15 -11 0 -6 -30 -69 -66
-140 -49 -97 -73 -133 -91 -140 -48 -18 -20 -34 65 -37 77 -3 82 -2 82 18 0
13 -7 20 -20 20 -23 0 -24 8 -10 44 9 25 12 26 104 26 l94 0 11 -31 c14 -40
15 -37 -11 -41 -13 -2 -23 -10 -23 -18 0 -12 19 -15 110 -15 83 0 110 3 110
13 0 7 -11 18 -24 25 -16 8 -54 65 -109 165 l-84 152 -84 0 c-68 0 -84 -3 -84
-15z"/>
</g>
</svg>
